<?xml version="1.0" encoding="UTF-8"?>
<svg width="36" height="36" viewBox="0 0 36 36" fill="none" xmlns="http://www.w3.org/2000/svg">
  <rect width="36" height="36" rx="18" fill="#409EFF"/>
  <path d="M18 10C14.134 10 11 13.134 11 17C11 19.3869 12.0509 21.4961 13.7271 22.8645C12.6447 24.0704 11.9165 25.5776 11.6416 27.2191C11.5885 27.5405 11.7953 27.8523 12.1167 27.9053C12.4381 27.9584 12.7499 27.7516 12.803 27.4302C13.1859 25.1924 14.5772 23.2399 16.5212 22.1572C17.0052 22.2752 17.4982 22.3398 18 22.3398C21.866 22.3398 25 19.2058 25 15.3398C25 11.4738 21.866 8.33984 18 8.33984C14.134 8.33984 11 11.4738 11 15.3398" stroke="white" stroke-width="2" stroke-linecap="round"/>
  <circle cx="14.5" cy="17" r="1.5" fill="white"/>
  <circle cx="21.5" cy="17" r="1.5" fill="white"/>
  <path d="M15 20.5C16.3333 21.8333 19.6667 21.8333 21 20.5" stroke="white" stroke-width="2" stroke-linecap="round"/>
</svg> 